<svg width="28" height="29" viewBox="0 0 28 29" fill="none" xmlns="http://www.w3.org/2000/svg">
<path fill-rule="evenodd" clip-rule="evenodd" d="M2.37047 0.468018H13.7778H14.543H25.9504L26.0897 1.30362C26.4755 3.61851 27.0144 7.39118 27.3804 11.2053C27.7438 14.9919 27.9472 18.9173 27.6259 21.4872C27.2811 24.2461 25.8932 26.0273 24.2771 27.0949C22.6981 28.1379 20.9303 28.4848 19.7469 28.4848H14.543H13.7778H8.57399C7.39055 28.4848 5.62281 28.1379 4.04379 27.0949C2.42765 26.0273 1.03978 24.2461 0.694922 21.4872C0.373678 18.9173 0.577102 14.9919 0.940462 11.2053C1.30646 7.39118 1.84539 3.61851 2.2312 1.30362L2.37047 0.468018ZM6.19148 2.46802H4.06834C3.70511 4.76133 3.25098 8.06508 2.93132 11.3963C2.56774 15.1852 2.38856 18.9118 2.67948 21.2391C2.94677 23.3775 3.98204 24.6571 5.14612 25.4261C6.34732 26.2195 7.71689 26.4848 8.57399 26.4848H13.7778H14.543H19.7469C20.604 26.4848 21.9735 26.2195 23.1747 25.4261C24.3388 24.6571 25.3741 23.3775 25.6414 21.2391C25.9323 18.9118 25.7531 15.1852 25.3895 11.3963C25.0699 8.06508 24.6158 4.76133 24.2525 2.46802H21.3642C21.3197 2.80543 21.2528 3.13951 21.1638 3.46802C21.0785 3.78323 20.9729 4.09332 20.8474 4.39631C20.4628 5.32469 19.8992 6.16824 19.1886 6.87879C18.4781 7.58934 17.6345 8.15298 16.7061 8.53753C15.7777 8.92208 14.7827 9.12 13.7778 9.12C12.773 9.12 11.7779 8.92208 10.8496 8.53753C9.92117 8.15298 9.07762 7.58934 8.36707 6.87879C7.65652 6.16824 7.09288 5.32469 6.70833 4.39631C6.58283 4.09332 6.4772 3.78323 6.39185 3.46802C6.30289 3.1395 6.23595 2.80543 6.19148 2.46802ZM8.55609 3.63094C8.53372 3.57693 8.5122 3.52262 8.49154 3.46802L19.0641 3.46802C19.0435 3.52262 19.022 3.57693 18.9996 3.63094C18.7156 4.31667 18.2992 4.93974 17.7744 5.46458C17.2496 5.98941 16.6265 6.40573 15.9408 6.68977C15.255 6.97381 14.5201 7.12001 13.7778 7.12001C13.0356 7.12001 12.3006 6.97381 11.6149 6.68977C10.9292 6.40573 10.3061 5.98941 9.78128 5.46458C9.25645 4.93974 8.84013 4.31667 8.55609 3.63094Z" fill="black"/>
</svg>
