<svg width="31" height="31" viewBox="0 0 31 31" fill="none" xmlns="http://www.w3.org/2000/svg">
<path fill-rule="evenodd" clip-rule="evenodd" d="M19.4444 20.6928C17.4518 22.3598 14.8851 23.3632 12.0839 23.3632C5.74482 23.3632 0.605957 18.2243 0.605957 11.8852C0.605957 5.54609 5.74482 0.407227 12.0839 0.407227C18.4231 0.407227 23.5619 5.54609 23.5619 11.8852C23.5619 14.7027 22.5468 17.2831 20.8623 19.2805L30.4163 29.5695L28.9507 30.9304L19.4444 20.6928ZM21.5619 11.8852C21.5619 17.1198 17.3185 21.3632 12.0839 21.3632C6.84939 21.3632 2.60596 17.1198 2.60596 11.8852C2.60596 6.65066 6.84939 2.40723 12.0839 2.40723C17.3185 2.40723 21.5619 6.65066 21.5619 11.8852Z" fill="black"/>
</svg>
